EBGaramondVF-Expanded_Ultralight.ufo
<glyph name="numbersign" format="1">
  <advance width="652"/>
  <unicode hex="0023"/>
  <outline>
    <contour>
      <point x="140" y="-66" type="curve" smooth="yes"/>
      <point x="187" y="128" type="line"/>
      <point x="371" y="134" type="line"/>
      <point x="324" y="-54" type="line"/>
      <point x="324" y="-58" type="line" smooth="yes"/>
      <point x="324" y="-64"/>
      <point x="327" y="-68"/>
      <point x="332" y="-68" type="curve" smooth="yes"/>
      <point x="342" y="-68"/>
      <point x="353" y="-66"/>
      <point x="355" y="-55" type="curve" smooth="yes"/>
      <point x="402" y="136" type="line"/>
      <point x="520" y="139" type="line" smooth="yes"/>
      <point x="536" y="139"/>
      <point x="542" y="159"/>
      <point x="542" y="167" type="curve" smooth="yes"/>
      <point x="542" y="172"/>
      <point x="536" y="176"/>
      <point x="529" y="176" type="curve"/>
      <point x="412" y="173" type="line"/>
      <point x="451" y="332" type="line"/>
      <point x="566" y="335" type="line" smooth="yes"/>
      <point x="582" y="335"/>
      <point x="588" y="356"/>
      <point x="588" y="364" type="curve" smooth="yes"/>
      <point x="588" y="369"/>
      <point x="584" y="372"/>
      <point x="575" y="372" type="curve"/>
      <point x="461" y="369" type="line"/>
      <point x="505" y="555" type="line"/>
      <point x="506" y="557"/>
      <point x="506" y="558"/>
      <point x="506" y="560" type="curve" smooth="yes"/>
      <point x="506" y="565"/>
      <point x="504" y="570"/>
      <point x="500" y="570" type="curve" smooth="yes"/>
      <point x="489" y="570"/>
      <point x="477" y="568"/>
      <point x="474" y="555" type="curve" smooth="yes"/>
      <point x="428" y="367" type="line"/>
      <point x="246" y="361" type="line"/>
      <point x="289" y="542" type="line"/>
      <point x="290" y="545"/>
      <point x="291" y="547"/>
      <point x="291" y="549" type="curve" smooth="yes"/>
      <point x="291" y="554"/>
      <point x="288" y="559"/>
      <point x="283" y="559" type="curve" smooth="yes"/>
      <point x="273" y="559"/>
      <point x="261" y="556"/>
      <point x="258" y="544" type="curve" smooth="yes"/>
      <point x="214" y="359" type="line"/>
      <point x="90" y="356" type="line" smooth="yes"/>
      <point x="76" y="356"/>
      <point x="71" y="336"/>
      <point x="71" y="328" type="curve" smooth="yes"/>
      <point x="71" y="322"/>
      <point x="78" y="319"/>
      <point x="85" y="319" type="curve"/>
      <point x="204" y="322" type="line"/>
      <point x="165" y="163" type="line"/>
      <point x="44" y="160" type="line" smooth="yes"/>
      <point x="30" y="159"/>
      <point x="25" y="139"/>
      <point x="25" y="132" type="curve" smooth="yes"/>
      <point x="25" y="126"/>
      <point x="32" y="123"/>
      <point x="39" y="123" type="curve"/>
      <point x="156" y="126" type="line"/>
      <point x="109" y="-64" type="line"/>
      <point x="108" y="-69" type="line" smooth="yes"/>
      <point x="108" y="-75"/>
      <point x="111" y="-79"/>
      <point x="117" y="-79" type="curve" smooth="yes"/>
      <point x="127" y="-79"/>
      <point x="137" y="-77"/>
    </contour>
    <contour>
      <point x="237" y="324" type="line"/>
      <point x="419" y="330" type="line"/>
      <point x="381" y="171" type="line"/>
      <point x="197" y="165" type="line"/>
    </contour>
  </outline>
</glyph>
<glyph name="dollar" format="1">
  <advance width="580"/>
  <unicode hex="0024"/>
  <outline>
    <contour>
      <point x="264" y="-68" type="curve" smooth="yes"/>
      <point x="273" y="7" type="line" smooth="yes"/>
      <point x="274" y="13"/>
      <point x="279" y="16"/>
      <point x="283" y="16" type="curve" smooth="yes"/>
      <point x="433" y="22"/>
      <point x="536" y="89"/>
      <point x="536" y="183" type="curve" smooth="yes"/>
      <point x="536" y="258"/>
      <point x="477" y="298"/>
      <point x="329" y="351" type="curve"/>
      <point x="320" y="354"/>
      <point x="318" y="357"/>
      <point x="319" y="365" type="curve" smooth="yes"/>
      <point x="348" y="594" type="line"/>
      <point x="348" y="598"/>
      <point x="351" y="599"/>
      <point x="353" y="599" type="curve" smooth="yes"/>
      <point x="411" y="591"/>
      <point x="465" y="554"/>
      <point x="489" y="502" type="curve" smooth="yes"/>
      <point x="492" y="496"/>
      <point x="503" y="489"/>
      <point x="514" y="489" type="curve" smooth="yes"/>
      <point x="521" y="489"/>
      <point x="527" y="492"/>
      <point x="527" y="499" type="curve" smooth="yes"/>
      <point x="527" y="528"/>
      <point x="511" y="564"/>
      <point x="500" y="589" type="curve" smooth="yes"/>
      <point x="496" y="599"/>
      <point x="485" y="608"/>
      <point x="472" y="612" type="curve" smooth="yes"/>
      <point x="449" y="619"/>
      <point x="409" y="630"/>
      <point x="358" y="631" type="curve" smooth="yes"/>
      <point x="355" y="631"/>
      <point x="353" y="634"/>
      <point x="354" y="638" type="curve" smooth="yes"/>
      <point x="355" y="652"/>
      <point x="360" y="685"/>
      <point x="361" y="698" type="curve"/>
      <point x="361" y="705"/>
      <point x="357" y="712"/>
      <point x="351" y="712" type="curve" smooth="yes"/>
      <point x="340" y="712"/>
      <point x="329" y="709"/>
      <point x="328" y="696" type="curve" smooth="yes"/>
      <point x="322" y="638" type="line" smooth="yes"/>
      <point x="322" y="635"/>
      <point x="321" y="632"/>
      <point x="315" y="631" type="curve" smooth="yes"/>
      <point x="151" y="626"/>
      <point x="83" y="555"/>
      <point x="83" y="477" type="curve" smooth="yes"/>
      <point x="83" y="418"/>
      <point x="148" y="372"/>
      <point x="269" y="328" type="curve" smooth="yes"/>
      <point x="276" y="324"/>
      <point x="279" y="320"/>
      <point x="278" y="312" type="curve" smooth="yes"/>
      <point x="246" y="52" type="line" smooth="yes"/>
      <point x="245" y="46"/>
      <point x="242" y="45"/>
      <point x="238" y="46" type="curve"/>
      <point x="160" y="60"/>
      <point x="113" y="93"/>
      <point x="89" y="175" type="curve" smooth="yes"/>
      <point x="86" y="181"/>
      <point x="80" y="185"/>
      <point x="74" y="185" type="curve" smooth="yes"/>
      <point x="64" y="185"/>
      <point x="56" y="180"/>
      <point x="56" y="172" type="curve"/>
      <point x="59" y="147"/>
      <point x="60" y="102"/>
      <point x="69" y="77" type="curve" smooth="yes"/>
      <point x="72" y="70"/>
      <point x="80" y="64"/>
      <point x="86" y="59" type="curve" smooth="yes"/>
      <point x="125" y="35"/>
      <point x="178" y="19"/>
      <point x="235" y="17" type="curve" smooth="yes"/>
      <point x="238" y="17"/>
      <point x="242" y="13"/>
      <point x="242" y="8" type="curve"/>
      <point x="233" y="-64" type="line" smooth="yes"/>
      <point x="231" y="-75"/>
      <point x="238" y="-82"/>
      <point x="244" y="-82" type="curve" smooth="yes"/>
      <point x="253" y="-82"/>
      <point x="263" y="-78"/>
    </contour>
    <contour>
      <point x="278" y="48" type="curve"/>
      <point x="310" y="301" type="line" smooth="yes"/>
      <point x="311" y="308"/>
      <point x="314" y="309"/>
      <point x="319" y="306" type="curve"/>
      <point x="440" y="257"/>
      <point x="490" y="225"/>
      <point x="490" y="161" type="curve" smooth="yes"/>
      <point x="490" y="80"/>
      <point x="392" y="36"/>
      <point x="291" y="37" type="curve"/>
      <point x="280" y="37"/>
      <point x="278" y="40"/>
    </contour>
    <contour>
      <point x="127" y="498" type="curve" smooth="yes"/>
      <point x="127" y="575"/>
      <point x="211" y="607"/>
      <point x="307" y="606" type="curve"/>
      <point x="312" y="606"/>
      <point x="316" y="603"/>
      <point x="316" y="596" type="curve"/>
      <point x="288" y="376" type="line"/>
      <point x="288" y="372"/>
      <point x="285" y="369"/>
      <point x="280" y="372" type="curve"/>
      <point x="179" y="411"/>
      <point x="127" y="454"/>
    </contour>
  </outline>
</glyph>
<glyph name="ampersand" format="1">
  <advance width="1046"/>
  <unicode hex="0026"/>
  <outline>
    <contour>
      <point x="577" y="118" type="curve"/>
      <point x="585" y="124" type="line"/>
      <point x="605" y="101" type="line" smooth="yes"/>
      <point x="673" y="23"/>
      <point x="707" y="-15"/>
      <point x="804" y="-15" type="curve" smooth="yes"/>
      <point x="881" y="-15"/>
      <point x="972" y="36"/>
      <point x="972" y="53" type="curve" smooth="yes"/>
      <point x="972" y="60"/>
      <point x="969" y="63"/>
      <point x="958" y="63" type="curve" smooth="yes"/>
      <point x="950" y="63"/>
      <point x="942" y="60"/>
      <point x="934" y="56" type="curve" smooth="yes"/>
      <point x="904" y="44"/>
      <point x="880" y="37"/>
      <point x="838" y="37" type="curve" smooth="yes"/>
      <point x="769" y="37"/>
      <point x="701" y="80"/>
      <point x="654" y="120" type="curve" smooth="yes"/>
      <point x="622" y="148" type="line"/>
      <point x="622" y="148"/>
      <point x="871" y="346"/>
      <point x="889" y="357" type="curve" smooth="yes"/>
      <point x="911" y="371"/>
      <point x="940" y="386"/>
      <point x="983" y="388" type="curve"/>
      <point x="996" y="389"/>
      <point x="1018" y="397"/>
      <point x="1018" y="404" type="curve" smooth="yes"/>
      <point x="1018" y="407"/>
      <point x="1005" y="412"/>
      <point x="1001" y="412" type="curve" smooth="yes"/>
      <point x="968" y="412"/>
      <point x="917" y="399"/>
      <point x="875" y="399" type="curve" smooth="yes"/>
      <point x="854" y="399"/>
      <point x="788" y="403"/>
      <point x="779" y="403" type="curve" smooth="yes"/>
      <point x="774" y="403"/>
      <point x="749" y="402"/>
      <point x="749" y="394" type="curve" smooth="yes"/>
      <point x="749" y="390"/>
      <point x="761" y="386"/>
      <point x="768" y="384" type="curve"/>
      <point x="799" y="381"/>
      <point x="808" y="366"/>
      <point x="808" y="358" type="curve" smooth="yes"/>
      <point x="808" y="341"/>
      <point x="702" y="237"/>
      <point x="636" y="184" type="curve" smooth="yes"/>
      <point x="605" y="160" type="line"/>
      <point x="587" y="179" type="line" smooth="yes"/>
      <point x="531" y="235"/>
      <point x="478" y="280"/>
      <point x="407" y="335" type="curve" smooth="yes"/>
      <point x="388" y="349" type="line"/>
      <point x="407" y="354" type="line" smooth="yes"/>
      <point x="491" y="377"/>
      <point x="536" y="426"/>
      <point x="535" y="477" type="curve" smooth="yes"/>
      <point x="535" y="537"/>
      <point x="484" y="599"/>
      <point x="377" y="599" type="curve" smooth="yes"/>
      <point x="291" y="599"/>
      <point x="203" y="554"/>
      <point x="203" y="484" type="curve" smooth="yes"/>
      <point x="203" y="425"/>
      <point x="276" y="389"/>
      <point x="303" y="369" type="curve"/>
      <point x="328" y="351" type="line"/>
      <point x="300" y="342" type="line" smooth="yes"/>
      <point x="145" y="295"/>
      <point x="53" y="235"/>
      <point x="53" y="127" type="curve" smooth="yes"/>
      <point x="53" y="45"/>
      <point x="153" y="-15"/>
      <point x="297" y="-15" type="curve" smooth="yes"/>
      <point x="427" y="-15"/>
      <point x="489" y="50"/>
    </contour>
    <contour>
      <point x="99" y="145" type="curve" smooth="yes"/>
      <point x="99" y="207"/>
      <point x="133" y="283"/>
      <point x="305" y="327" type="curve" smooth="yes"/>
      <point x="344" y="338" type="line"/>
      <point x="364" y="322" type="line" smooth="yes"/>
      <point x="444" y="260"/>
      <point x="505" y="208"/>
      <point x="554" y="159" type="curve" smooth="yes"/>
      <point x="573" y="140" type="line"/>
      <point x="556" y="127" type="line" smooth="yes"/>
      <point x="477" y="63"/>
      <point x="408" y="24"/>
      <point x="303" y="24" type="curve" smooth="yes"/>
      <point x="183" y="24"/>
      <point x="99" y="78"/>
    </contour>
    <contour>
      <point x="347" y="381" type="line" smooth="yes"/>
      <point x="258" y="437"/>
      <point x="239" y="459"/>
      <point x="239" y="500" type="curve" smooth="yes"/>
      <point x="239" y="549"/>
      <point x="304" y="579"/>
      <point x="375" y="579" type="curve" smooth="yes"/>
      <point x="456" y="579"/>
      <point x="495" y="530"/>
      <point x="495" y="479" type="curve" smooth="yes"/>
      <point x="495" y="436"/>
      <point x="466" y="389"/>
      <point x="401" y="371" type="curve" smooth="yes"/>
      <point x="375" y="363" type="line"/>
    </contour>
  </outline>
</glyph>
<glyph name="hyphen" format="1">
  <advance width="383"/>
  <unicode hex="002D"/>
  <outline>
    <contour>
      <point x="313" y="197" type="curve" smooth="yes"/>
      <point x="336" y="199"/>
      <point x="343" y="219"/>
      <point x="343" y="238" type="curve" smooth="yes"/>
      <point x="343" y="241"/>
      <point x="337" y="242"/>
      <point x="332" y="242" type="curve"/>
      <point x="242" y="236"/>
      <point x="153" y="229"/>
      <point x="63" y="221" type="curve"/>
      <point x="49" y="220"/>
      <point x="41" y="197"/>
      <point x="41" y="180" type="curve" smooth="yes"/>
      <point x="41" y="177"/>
      <point x="42" y="176"/>
      <point x="49" y="176" type="curve"/>
      <point x="143" y="181"/>
      <point x="229" y="190"/>
    </contour>
  </outline>
</glyph>
<glyph name="two" format="1">
  <advance width="606"/>
  <unicode hex="0032"/>
  <outline>
    <contour>
      <point x="571" y="21" type="curve" smooth="yes"/>
      <point x="585" y="71"/>
      <point x="606" y="121"/>
      <point x="606" y="131" type="curve" smooth="yes"/>
      <point x="606" y="136"/>
      <point x="604" y="144"/>
      <point x="597" y="144" type="curve" smooth="yes"/>
      <point x="589" y="144"/>
      <point x="581" y="132"/>
      <point x="576" y="123" type="curve" smooth="yes"/>
      <point x="556" y="79"/>
      <point x="540" y="67"/>
      <point x="479" y="64" type="curve" smooth="yes"/>
      <point x="386" y="62"/>
      <point x="337" y="61"/>
      <point x="284" y="61" type="curve" smooth="yes"/>
      <point x="232" y="61"/>
      <point x="183" y="61"/>
      <point x="152" y="64" type="curve" smooth="yes"/>
      <point x="141" y="65"/>
      <point x="132" y="66"/>
      <point x="132" y="71" type="curve" smooth="yes"/>
      <point x="146" y="87"/>
      <point x="335" y="203"/>
      <point x="395" y="253" type="curve" smooth="yes"/>
      <point x="469" y="317"/>
      <point x="520" y="400"/>
      <point x="520" y="472" type="curve" smooth="yes"/>
      <point x="520" y="561"/>
      <point x="445" y="630"/>
      <point x="316" y="630" type="curve" smooth="yes"/>
      <point x="172" y="630"/>
      <point x="77" y="533"/>
      <point x="70" y="495" type="curve" smooth="yes"/>
      <point x="70" y="485"/>
      <point x="67" y="470"/>
      <point x="72" y="470" type="curve" smooth="yes"/>
      <point x="77" y="470"/>
      <point x="80" y="477"/>
      <point x="86" y="484" type="curve"/>
      <point x="129" y="536"/>
      <point x="212" y="566"/>
      <point x="299" y="566" type="curve" smooth="yes"/>
      <point x="394" y="566"/>
      <point x="469" y="521"/>
      <point x="469" y="450" type="curve" smooth="yes"/>
      <point x="469" y="360"/>
      <point x="394" y="271"/>
      <point x="286" y="197" type="curve" smooth="yes"/>
      <point x="34" y="28" type="line" smooth="yes"/>
      <point x="26" y="22"/>
      <point x="23" y="21"/>
      <point x="23" y="15" type="curve" smooth="yes"/>
      <point x="23" y="9"/>
      <point x="44" y="-2"/>
      <point x="51" y="-2" type="curve" smooth="yes"/>
      <point x="78" y="-2"/>
      <point x="282" y="3"/>
      <point x="350" y="3" type="curve" smooth="yes"/>
      <point x="417" y="3"/>
      <point x="514" y="-3"/>
      <point x="541" y="-3" type="curve" smooth="yes"/>
      <point x="550" y="-3"/>
      <point x="566" y="0"/>
    </contour>
  </outline>
</glyph>
<glyph name="three" format="1">
  <advance width="606"/>
  <unicode hex="0033"/>
  <outline>
    <contour>
      <point x="553" y="190" type="curve" smooth="yes"/>
      <point x="553" y="279"/>
      <point x="462" y="344"/>
      <point x="351" y="344" type="curve" smooth="yes"/>
      <point x="344" y="344"/>
      <point x="344" y="348"/>
      <point x="350" y="350" type="curve"/>
      <point x="453" y="394"/>
      <point x="490" y="458"/>
      <point x="490" y="506" type="curve" smooth="yes"/>
      <point x="490" y="578"/>
      <point x="409" y="630"/>
      <point x="314" y="630" type="curve" smooth="yes"/>
      <point x="140" y="630"/>
      <point x="68" y="535"/>
      <point x="68" y="500" type="curve" smooth="yes"/>
      <point x="68" y="490"/>
      <point x="77" y="483"/>
      <point x="84" y="483" type="curve" smooth="yes"/>
      <point x="102" y="483"/>
      <point x="125" y="572"/>
      <point x="289" y="572" type="curve" smooth="yes"/>
      <point x="379" y="572"/>
      <point x="440" y="531"/>
      <point x="440" y="468" type="curve" smooth="yes"/>
      <point x="440" y="391"/>
      <point x="282" y="340"/>
      <point x="247" y="329" type="curve" smooth="yes"/>
      <point x="215" y="324"/>
      <point x="198" y="314"/>
      <point x="191" y="299" type="curve" smooth="yes"/>
      <point x="189" y="292"/>
      <point x="204" y="287"/>
      <point x="221" y="292" type="curve" smooth="yes"/>
      <point x="256" y="305"/>
      <point x="299" y="308"/>
      <point x="322" y="308" type="curve" smooth="yes"/>
      <point x="447" y="308"/>
      <point x="502" y="228"/>
      <point x="502" y="148" type="curve" smooth="yes"/>
      <point x="502" y="62"/>
      <point x="396" y="-6"/>
      <point x="276" y="-6" type="curve" smooth="yes"/>
      <point x="218" y="-6"/>
      <point x="180" y="12"/>
      <point x="154" y="29" type="curve" smooth="yes"/>
      <point x="136" y="41"/>
      <point x="120" y="50"/>
      <point x="99" y="50" type="curve" smooth="yes"/>
      <point x="78" y="51"/>
      <point x="43" y="19"/>
      <point x="43" y="5" type="curve" smooth="yes"/>
      <point x="43" y="-11"/>
      <point x="126" y="-38"/>
      <point x="188" y="-38" type="curve" smooth="yes"/>
      <point x="366" y="-38"/>
      <point x="553" y="44"/>
    </contour>
  </outline>
</glyph>
<glyph name="five" format="1">
  <advance width="606"/>
  <unicode hex="0035"/>
  <outline>
    <contour>
      <point x="395" y="18" type="curve" smooth="yes"/>
      <point x="486" y="60"/>
      <point x="543" y="124"/>
      <point x="543" y="195" type="curve" smooth="yes"/>
      <point x="543" y="269"/>
      <point x="492" y="315"/>
      <point x="394" y="352" type="curve" smooth="yes"/>
      <point x="330" y="376"/>
      <point x="234" y="398"/>
      <point x="133" y="417" type="curve" smooth="yes"/>
      <point x="116" y="420"/>
      <point x="113" y="426"/>
      <point x="114" y="435" type="curve"/>
      <point x="116" y="450"/>
      <point x="153" y="525"/>
      <point x="173" y="527" type="curve" smooth="yes"/>
      <point x="215" y="531"/>
      <point x="361" y="539"/>
      <point x="434" y="545" type="curve" smooth="yes"/>
      <point x="458" y="547"/>
      <point x="472" y="557"/>
      <point x="486" y="577" type="curve" smooth="yes"/>
      <point x="493" y="587"/>
      <point x="501" y="599"/>
      <point x="509" y="610" type="curve" smooth="yes"/>
      <point x="516" y="619"/>
      <point x="507" y="628"/>
      <point x="493" y="627" type="curve" smooth="yes"/>
      <point x="384" y="619"/>
      <point x="290" y="607"/>
      <point x="204" y="592" type="curve" smooth="yes"/>
      <point x="175" y="587"/>
      <point x="157" y="576"/>
      <point x="147" y="556" type="curve" smooth="yes"/>
      <point x="126" y="512"/>
      <point x="83" y="450"/>
      <point x="83" y="414" type="curve" smooth="yes"/>
      <point x="83" y="396"/>
      <point x="88" y="385"/>
      <point x="113" y="374" type="curve"/>
      <point x="381" y="327"/>
      <point x="495" y="277"/>
      <point x="495" y="189" type="curve" smooth="yes"/>
      <point x="495" y="74"/>
      <point x="385" y="-9"/>
      <point x="124" y="-13" type="curve" smooth="yes"/>
      <point x="101" y="-13"/>
      <point x="73" y="-20"/>
      <point x="73" y="-28" type="curve" smooth="yes"/>
      <point x="73" y="-36"/>
      <point x="103" y="-38"/>
      <point x="124" y="-38" type="curve" smooth="yes"/>
      <point x="230" y="-38"/>
      <point x="323" y="-17"/>
    </contour>
  </outline>
</glyph>
<glyph name="six" format="1">
  <advance width="606"/>
  <unicode hex="0036"/>
  <outline>
    <contour>
      <point x="561" y="181" type="curve" smooth="yes"/>
      <point x="561" y="262"/>
      <point x="482" y="313"/>
      <point x="394" y="313" type="curve" smooth="yes"/>
      <point x="350" y="313"/>
      <point x="295" y="295"/>
      <point x="272" y="283" type="curve" smooth="yes"/>
      <point x="257" y="276"/>
      <point x="247" y="270"/>
      <point x="234" y="260" type="curve" smooth="yes"/>
      <point x="225" y="252"/>
      <point x="227" y="243"/>
      <point x="244" y="250" type="curve" smooth="yes"/>
      <point x="281" y="263"/>
      <point x="320" y="269"/>
      <point x="372" y="269" type="curve" smooth="yes"/>
      <point x="457" y="269"/>
      <point x="518" y="209"/>
      <point x="518" y="141" type="curve" smooth="yes"/>
      <point x="518" y="53"/>
      <point x="435" y="12"/>
      <point x="341" y="13" type="curve" smooth="yes"/>
      <point x="234" y="14"/>
      <point x="108" y="76"/>
      <point x="105" y="189" type="curve" smooth="yes"/>
      <point x="101" y="303"/>
      <point x="172" y="417"/>
      <point x="253" y="496" type="curve" smooth="yes"/>
      <point x="319" y="549"/>
      <point x="402" y="590"/>
      <point x="516" y="619" type="curve" smooth="yes"/>
      <point x="527" y="622"/>
      <point x="547" y="625"/>
      <point x="556" y="636" type="curve" smooth="yes"/>
      <point x="558" y="639"/>
      <point x="548" y="645"/>
      <point x="532" y="642" type="curve" smooth="yes"/>
      <point x="400" y="617"/>
      <point x="297" y="567"/>
      <point x="230" y="514" type="curve" smooth="yes"/>
      <point x="141" y="438"/>
      <point x="54" y="324"/>
      <point x="54" y="193" type="curve" smooth="yes"/>
      <point x="54" y="53"/>
      <point x="180" y="-16"/>
      <point x="307" y="-16" type="curve" smooth="yes"/>
      <point x="436" y="-16"/>
      <point x="561" y="59"/>
    </contour>
  </outline>
</glyph>
<glyph name="seven" format="1">
  <advance width="672"/>
  <unicode hex="0037"/>
  <outline>
    <contour>
      <point x="173" y="-6" type="curve" smooth="yes"/>
      <point x="589" y="538" type="line" smooth="yes"/>
      <point x="603" y="555"/>
      <point x="642" y="592"/>
      <point x="642" y="608" type="curve" smooth="yes"/>
      <point x="642" y="613"/>
      <point x="638" y="621"/>
      <point x="634" y="621" type="curve" smooth="yes"/>
      <point x="607" y="619"/>
      <point x="463" y="616"/>
      <point x="326" y="616" type="curve" smooth="yes"/>
      <point x="260" y="616"/>
      <point x="229" y="617"/>
      <point x="188" y="617" type="curve" smooth="yes"/>
      <point x="129" y="617"/>
      <point x="74" y="626"/>
      <point x="70" y="626" type="curve" smooth="yes"/>
      <point x="66" y="626"/>
      <point x="57" y="624"/>
      <point x="56" y="615" type="curve" smooth="yes"/>
      <point x="52" y="595"/>
      <point x="43" y="559"/>
      <point x="33" y="535" type="curve"/>
      <point x="32" y="531"/>
      <point x="28" y="523"/>
      <point x="28" y="517" type="curve" smooth="yes"/>
      <point x="28" y="512"/>
      <point x="29" y="506"/>
      <point x="37" y="506" type="curve" smooth="yes"/>
      <point x="46" y="506"/>
      <point x="56" y="522"/>
      <point x="61" y="531" type="curve" smooth="yes"/>
      <point x="82" y="568"/>
      <point x="109" y="577"/>
      <point x="144" y="577" type="curve" smooth="yes"/>
      <point x="595" y="577" type="line"/>
      <point x="599" y="593" type="line"/>
      <point x="167" y="35" type="line" smooth="yes"/>
      <point x="155" y="19"/>
      <point x="131" y="-8"/>
      <point x="131" y="-13" type="curve" smooth="yes"/>
      <point x="131" y="-23"/>
      <point x="136" y="-32"/>
      <point x="148" y="-32" type="curve" smooth="yes"/>
      <point x="153" y="-32"/>
      <point x="165" y="-16"/>
    </contour>
  </outline>
</glyph>
<glyph name="C" format="1">
  <advance width="929"/>
  <unicode hex="0043"/>
  <outline>
    <contour>
      <point x="781" y="13" type="curve" smooth="yes"/>
      <point x="810" y="20"/>
      <point x="814" y="19"/>
      <point x="825" y="40" type="curve" smooth="yes"/>
      <point x="838" y="68"/>
      <point x="852" y="121"/>
      <point x="852" y="137" type="curve" smooth="yes"/>
      <point x="852" y="158"/>
      <point x="829" y="159"/>
      <point x="820" y="141" type="curve" smooth="yes"/>
      <point x="768" y="45"/>
      <point x="707" y="9"/>
      <point x="520" y="9" type="curve" smooth="yes"/>
      <point x="280" y="9"/>
      <point x="122" y="181"/>
      <point x="122" y="347" type="curve" smooth="yes"/>
      <point x="122" y="498"/>
      <point x="284" y="639"/>
      <point x="509" y="639" type="curve" smooth="yes"/>
      <point x="636" y="639"/>
      <point x="701" y="626"/>
      <point x="741" y="600" type="curve" smooth="yes"/>
      <point x="778" y="576"/>
      <point x="794" y="542"/>
      <point x="812" y="488" type="curve" smooth="yes"/>
      <point x="819" y="464"/>
      <point x="846" y="473"/>
      <point x="845" y="489" type="curve" smooth="yes"/>
      <point x="842" y="541"/>
      <point x="839" y="573"/>
      <point x="836" y="604" type="curve" smooth="yes"/>
      <point x="834" y="622"/>
      <point x="824" y="633"/>
      <point x="796" y="638" type="curve" smooth="yes"/>
      <point x="703" y="655"/>
      <point x="655" y="664"/>
      <point x="550" y="664" type="curve" smooth="yes"/>
      <point x="292" y="664"/>
      <point x="64" y="518"/>
      <point x="64" y="323" type="curve" smooth="yes"/>
      <point x="64" y="118"/>
      <point x="283" y="-16"/>
      <point x="515" y="-16" type="curve" smooth="yes"/>
      <point x="604" y="-16"/>
      <point x="714" y="-6"/>
    </contour>
  </outline>
</glyph>
<glyph name="H" format="1">
  <advance width="1066"/>
  <unicode hex="0048"/>
  <outline>
    <contour>
      <point x="189" y="-2" type="curve" smooth="yes"/>
      <point x="227" y="-2"/>
      <point x="240" y="-3"/>
      <point x="292" y="-3" type="curve" smooth="yes"/>
      <point x="313" y="-3"/>
      <point x="324" y="1"/>
      <point x="324" y="7" type="curve" smooth="yes"/>
      <point x="324" y="14"/>
      <point x="313" y="18"/>
      <point x="285" y="22" type="curve" smooth="yes"/>
      <point x="230" y="28"/>
      <point x="206" y="36"/>
      <point x="206" y="77" type="curve" smooth="yes"/>
      <point x="206" y="296" type="line" smooth="yes"/>
      <point x="206" y="307"/>
      <point x="211" y="312"/>
      <point x="218" y="312" type="curve" smooth="yes"/>
      <point x="844" y="312" type="line" smooth="yes"/>
      <point x="854" y="312"/>
      <point x="856" y="306"/>
      <point x="856" y="296" type="curve" smooth="yes"/>
      <point x="856" y="78" type="line" smooth="yes"/>
      <point x="856" y="39"/>
      <point x="843" y="29"/>
      <point x="779" y="22" type="curve" smooth="yes"/>
      <point x="752" y="18"/>
      <point x="741" y="14"/>
      <point x="741" y="7" type="curve" smooth="yes"/>
      <point x="741" y="1"/>
      <point x="751" y="-3"/>
      <point x="772" y="-3" type="curve" smooth="yes"/>
      <point x="824" y="-3"/>
      <point x="836" y="-2"/>
      <point x="874" y="-2" type="curve" smooth="yes"/>
      <point x="910" y="-2"/>
      <point x="921" y="-3"/>
      <point x="977" y="-3" type="curve" smooth="yes"/>
      <point x="999" y="-3"/>
      <point x="1010" y="1"/>
      <point x="1010" y="7" type="curve" smooth="yes"/>
      <point x="1010" y="14"/>
      <point x="998" y="18"/>
      <point x="969" y="22" type="curve" smooth="yes"/>
      <point x="911" y="28"/>
      <point x="903" y="38"/>
      <point x="903" y="78" type="curve" smooth="yes"/>
      <point x="903" y="571" type="line" smooth="yes"/>
      <point x="903" y="610"/>
      <point x="909" y="621"/>
      <point x="969" y="628" type="curve" smooth="yes"/>
      <point x="998" y="631"/>
      <point x="1010" y="635"/>
      <point x="1010" y="642" type="curve" smooth="yes"/>
      <point x="1010" y="648"/>
      <point x="999" y="652"/>
      <point x="976" y="652" type="curve" smooth="yes"/>
      <point x="921" y="652"/>
      <point x="911" y="650"/>
      <point x="875" y="650" type="curve" smooth="yes"/>
      <point x="837" y="650"/>
      <point x="824" y="652"/>
      <point x="773" y="652" type="curve" smooth="yes"/>
      <point x="751" y="652"/>
      <point x="741" y="648"/>
      <point x="741" y="642" type="curve" smooth="yes"/>
      <point x="741" y="635"/>
      <point x="752" y="631"/>
      <point x="780" y="628" type="curve" smooth="yes"/>
      <point x="842" y="620"/>
      <point x="856" y="606"/>
      <point x="856" y="571" type="curve" smooth="yes"/>
      <point x="856" y="355" type="line" smooth="yes"/>
      <point x="856" y="345"/>
      <point x="852" y="341"/>
      <point x="844" y="341" type="curve" smooth="yes"/>
      <point x="220" y="341" type="line" smooth="yes"/>
      <point x="212" y="341"/>
      <point x="206" y="344"/>
      <point x="206" y="356" type="curve" smooth="yes"/>
      <point x="206" y="571" type="line" smooth="yes"/>
      <point x="206" y="610"/>
      <point x="226" y="621"/>
      <point x="284" y="628" type="curve" smooth="yes"/>
      <point x="311" y="631"/>
      <point x="322" y="635"/>
      <point x="322" y="642" type="curve" smooth="yes"/>
      <point x="322" y="648"/>
      <point x="312" y="652"/>
      <point x="290" y="652" type="curve" smooth="yes"/>
      <point x="239" y="652"/>
      <point x="227" y="650"/>
      <point x="189" y="650" type="curve" smooth="yes"/>
      <point x="153" y="650"/>
      <point x="142" y="652"/>
      <point x="86" y="652" type="curve" smooth="yes"/>
      <point x="64" y="652"/>
      <point x="53" y="648"/>
      <point x="53" y="642" type="curve" smooth="yes"/>
      <point x="53" y="635"/>
      <point x="65" y="631"/>
      <point x="94" y="628" type="curve" smooth="yes"/>
      <point x="154" y="621"/>
      <point x="159" y="609"/>
      <point x="159" y="571" type="curve" smooth="yes"/>
      <point x="159" y="77" type="line" smooth="yes"/>
      <point x="159" y="37"/>
      <point x="153" y="28"/>
      <point x="93" y="22" type="curve" smooth="yes"/>
      <point x="64" y="18"/>
      <point x="52" y="14"/>
      <point x="52" y="7" type="curve" smooth="yes"/>
      <point x="52" y="1"/>
      <point x="63" y="-3"/>
      <point x="86" y="-3" type="curve" smooth="yes"/>
      <point x="141" y="-3"/>
      <point x="153" y="-2"/>
    </contour>
  </outline>
</glyph>
<glyph name="J" format="1">
  <advance width="314"/>
  <unicode hex="004A"/>
  <outline>
    <contour>
      <point x="121" y="-139" type="curve" smooth="yes"/>
      <point x="159" y="-99"/>
      <point x="201" y="-37"/>
      <point x="201" y="58" type="curve" smooth="yes"/>
      <point x="201" y="568" type="line" smooth="yes"/>
      <point x="201" y="607"/>
      <point x="229" y="620"/>
      <point x="290" y="627" type="curve" smooth="yes"/>
      <point x="317" y="631"/>
      <point x="329" y="637"/>
      <point x="329" y="644" type="curve" smooth="yes"/>
      <point x="329" y="651"/>
      <point x="315" y="653"/>
      <point x="296" y="653" type="curve" smooth="yes"/>
      <point x="242" y="653"/>
      <point x="228" y="651"/>
      <point x="184" y="651" type="curve" smooth="yes"/>
      <point x="138" y="651"/>
      <point x="120" y="653"/>
      <point x="66" y="653" type="curve" smooth="yes"/>
      <point x="47" y="653"/>
      <point x="33" y="651"/>
      <point x="33" y="644" type="curve" smooth="yes"/>
      <point x="33" y="637"/>
      <point x="45" y="631"/>
      <point x="73" y="627" type="curve" smooth="yes"/>
      <point x="134" y="620"/>
      <point x="154" y="607"/>
      <point x="154" y="568" type="curve" smooth="yes"/>
      <point x="154" y="23" type="line" smooth="yes"/>
      <point x="154" y="-92"/>
      <point x="102" y="-166"/>
      <point x="29" y="-166" type="curve" smooth="yes"/>
      <point x="-7" y="-166"/>
      <point x="-31" y="-153"/>
      <point x="-53" y="-131" type="curve" smooth="yes"/>
      <point x="-70" y="-113"/>
      <point x="-86" y="-104"/>
      <point x="-103" y="-104" type="curve" smooth="yes"/>
      <point x="-120" y="-104"/>
      <point x="-141" y="-126"/>
      <point x="-141" y="-149" type="curve" smooth="yes"/>
      <point x="-141" y="-183"/>
      <point x="-110" y="-200"/>
      <point x="-16" y="-200" type="curve" smooth="yes"/>
      <point x="46" y="-200"/>
      <point x="82" y="-176"/>
    </contour>
  </outline>
</glyph>
<glyph name="Q" format="1">
  <advance width="989"/>
  <unicode hex="0051"/>
  <outline>
    <contour>
      <point x="1181" y="-213" type="curve" smooth="yes"/>
      <point x="1201" y="-204"/>
      <point x="1206" y="-199"/>
      <point x="1206" y="-187" type="curve" smooth="yes"/>
      <point x="1206" y="-181"/>
      <point x="1200" y="-179"/>
      <point x="1193" y="-179" type="curve" smooth="yes"/>
      <point x="1183" y="-179"/>
      <point x="1171" y="-181"/>
      <point x="1160" y="-183" type="curve"/>
      <point x="1145" y="-188"/>
      <point x="1105" y="-192"/>
      <point x="1063" y="-192" type="curve" smooth="yes"/>
      <point x="959" y="-192"/>
      <point x="859" y="-178"/>
      <point x="763" y="-129" type="curve" smooth="yes"/>
      <point x="694" y="-95"/>
      <point x="643" y="-64"/>
      <point x="587" y="-23" type="curve"/>
      <point x="584" y="-20"/>
      <point x="583" y="-17"/>
      <point x="583" y="-14" type="curve" smooth="yes"/>
      <point x="583" y="-12"/>
      <point x="584" y="-9"/>
      <point x="592" y="-7" type="curve" smooth="yes"/>
      <point x="814" y="24"/>
      <point x="926" y="172"/>
      <point x="926" y="320" type="curve" smooth="yes"/>
      <point x="926" y="530"/>
      <point x="722" y="664"/>
      <point x="500" y="664" type="curve" smooth="yes"/>
      <point x="213" y="664"/>
      <point x="63" y="502"/>
      <point x="63" y="330" type="curve" smooth="yes"/>
      <point x="63" y="158"/>
      <point x="192" y="39"/>
      <point x="354" y="1" type="curve" smooth="yes"/>
      <point x="424" y="-14"/>
      <point x="486" y="-38"/>
      <point x="545" y="-68" type="curve" smooth="yes"/>
      <point x="661" y="-123"/>
      <point x="703" y="-153"/>
      <point x="769" y="-184" type="curve" smooth="yes"/>
      <point x="850" y="-225"/>
      <point x="919" y="-248"/>
      <point x="1019" y="-248" type="curve" smooth="yes"/>
      <point x="1070" y="-248"/>
      <point x="1128" y="-237"/>
    </contour>
    <contour>
      <point x="119" y="366" type="curve" smooth="yes"/>
      <point x="119" y="522"/>
      <point x="250" y="631"/>
      <point x="476" y="631" type="curve" smooth="yes"/>
      <point x="725" y="631"/>
      <point x="870" y="476"/>
      <point x="870" y="285" type="curve" smooth="yes"/>
      <point x="870" y="131"/>
      <point x="736" y="17"/>
      <point x="511" y="17" type="curve" smooth="yes"/>
      <point x="273" y="17"/>
      <point x="119" y="165"/>
    </contour>
  </outline>
</glyph>
<glyph name="R" format="1">
  <advance width="965"/>
  <unicode hex="0052"/>
  <outline>
    <contour>
      <point x="982" y="7" type="curve" smooth="yes"/>
      <point x="982" y="13"/>
      <point x="975" y="16"/>
      <point x="959" y="16" type="curve" smooth="yes"/>
      <point x="893" y="16"/>
      <point x="847" y="20"/>
      <point x="796" y="49" type="curve" smooth="yes"/>
      <point x="635" y="140"/>
      <point x="570" y="221"/>
      <point x="473" y="312" type="curve" smooth="yes"/>
      <point x="467" y="318"/>
      <point x="466" y="323"/>
      <point x="473" y="325" type="curve"/>
      <point x="558" y="353"/>
      <point x="644" y="403"/>
      <point x="644" y="493" type="curve" smooth="yes"/>
      <point x="644" y="602"/>
      <point x="546" y="657"/>
      <point x="365" y="657" type="curve" smooth="yes"/>
      <point x="293" y="657"/>
      <point x="270" y="652"/>
      <point x="223" y="652" type="curve" smooth="yes"/>
      <point x="172" y="652"/>
      <point x="161" y="653"/>
      <point x="85" y="653" type="curve" smooth="yes"/>
      <point x="66" y="653"/>
      <point x="53" y="651"/>
      <point x="53" y="644" type="curve" smooth="yes"/>
      <point x="53" y="637"/>
      <point x="64" y="629"/>
      <point x="90" y="628" type="curve" smooth="yes"/>
      <point x="154" y="623"/>
      <point x="163" y="611"/>
      <point x="163" y="539" type="curve" smooth="yes"/>
      <point x="163" y="88" type="line" smooth="yes"/>
      <point x="163" y="40"/>
      <point x="149" y="28"/>
      <point x="81" y="19" type="curve" smooth="yes"/>
      <point x="55" y="16"/>
      <point x="44" y="11"/>
      <point x="44" y="4" type="curve" smooth="yes"/>
      <point x="44" y="-3"/>
      <point x="58" y="-5"/>
      <point x="77" y="-5" type="curve" smooth="yes"/>
      <point x="125" y="-5"/>
      <point x="152" y="2"/>
      <point x="192" y="2" type="curve" smooth="yes"/>
      <point x="222" y="2"/>
      <point x="260" y="-5"/>
      <point x="295" y="-5" type="curve" smooth="yes"/>
      <point x="312" y="-5"/>
      <point x="325" y="-3"/>
      <point x="325" y="4" type="curve" smooth="yes"/>
      <point x="325" y="11"/>
      <point x="313" y="16"/>
      <point x="286" y="19" type="curve" smooth="yes"/>
      <point x="224" y="26"/>
      <point x="209" y="48"/>
      <point x="209" y="94" type="curve" smooth="yes"/>
      <point x="210" y="286" type="line" smooth="yes"/>
      <point x="210" y="298"/>
      <point x="218" y="307"/>
      <point x="242" y="306" type="curve" smooth="yes"/>
      <point x="326" y="303"/>
      <point x="373" y="299"/>
      <point x="416" y="285" type="curve" smooth="yes"/>
      <point x="446" y="275"/>
      <point x="464" y="265"/>
      <point x="479" y="246" type="curve" smooth="yes"/>
      <point x="563" y="142"/>
      <point x="606" y="98"/>
      <point x="693" y="33" type="curve" smooth="yes"/>
      <point x="741" y="-6"/>
      <point x="802" y="-21"/>
      <point x="876" y="-21" type="curve" smooth="yes"/>
      <point x="909" y="-21"/>
      <point x="982" y="-16"/>
    </contour>
    <contour>
      <point x="209" y="361" type="curve" smooth="yes"/>
      <point x="209" y="443"/>
      <point x="211" y="501"/>
      <point x="213" y="536" type="curve" smooth="yes"/>
      <point x="218" y="607"/>
      <point x="234" y="631"/>
      <point x="314" y="631" type="curve" smooth="yes"/>
      <point x="549" y="631"/>
      <point x="590" y="568"/>
      <point x="590" y="477" type="curve" smooth="yes"/>
      <point x="590" y="390"/>
      <point x="493" y="325"/>
      <point x="309" y="325" type="curve" smooth="yes"/>
      <point x="247" y="325"/>
      <point x="209" y="327"/>
    </contour>
  </outline>
</glyph>
<glyph name="S" format="1">
  <advance width="603"/>
  <unicode hex="0053"/>
  <outline>
    <contour>
      <point x="559" y="169" type="curve" smooth="yes"/>
      <point x="559" y="256"/>
      <point x="490" y="300"/>
      <point x="340" y="355" type="curve" smooth="yes"/>
      <point x="203" y="408"/>
      <point x="130" y="458"/>
      <point x="130" y="516" type="curve" smooth="yes"/>
      <point x="130" y="599"/>
      <point x="209" y="637"/>
      <point x="305" y="637" type="curve" smooth="yes"/>
      <point x="392" y="637"/>
      <point x="472" y="609"/>
      <point x="509" y="521" type="curve" smooth="yes"/>
      <point x="512" y="513"/>
      <point x="525" y="507"/>
      <point x="535" y="507" type="curve" smooth="yes"/>
      <point x="543" y="507"/>
      <point x="549" y="510"/>
      <point x="549" y="518" type="curve" smooth="yes"/>
      <point x="549" y="550"/>
      <point x="533" y="589"/>
      <point x="521" y="617" type="curve" smooth="yes"/>
      <point x="517" y="627"/>
      <point x="506" y="638"/>
      <point x="492" y="642" type="curve" smooth="yes"/>
      <point x="463" y="651"/>
      <point x="418" y="664"/>
      <point x="356" y="664" type="curve" smooth="yes"/>
      <point x="163" y="664"/>
      <point x="84" y="585"/>
      <point x="84" y="494" type="curve" smooth="yes"/>
      <point x="84" y="419"/>
      <point x="167" y="368"/>
      <point x="318" y="310" type="curve" smooth="yes"/>
      <point x="453" y="254"/>
      <point x="509" y="220"/>
      <point x="509" y="145" type="curve" smooth="yes"/>
      <point x="509" y="62"/>
      <point x="431" y="10"/>
      <point x="324" y="10" type="curve" smooth="yes"/>
      <point x="195" y="10"/>
      <point x="125" y="42"/>
      <point x="91" y="160" type="curve" smooth="yes"/>
      <point x="89" y="167"/>
      <point x="81" y="171"/>
      <point x="75" y="171" type="curve" smooth="yes"/>
      <point x="65" y="171"/>
      <point x="56" y="166"/>
      <point x="56" y="157" type="curve"/>
      <point x="58" y="129"/>
      <point x="60" y="79"/>
      <point x="70" y="52" type="curve" smooth="yes"/>
      <point x="73" y="44"/>
      <point x="81" y="37"/>
      <point x="87" y="32" type="curve"/>
      <point x="136" y="1"/>
      <point x="199" y="-16"/>
      <point x="272" y="-16" type="curve" smooth="yes"/>
      <point x="445" y="-16"/>
      <point x="559" y="58"/>
    </contour>
  </outline>
</glyph>
<glyph name="bracketleft" format="1">
  <advance width="382"/>
  <unicode hex="005B"/>
  <outline>
    <contour>
      <point x="336" y="-200" type="line" smooth="yes"/>
      <point x="348" y="-200"/>
      <point x="362" y="-198"/>
      <point x="362" y="-188" type="curve" smooth="yes"/>
      <point x="362" y="-179"/>
      <point x="349" y="-175"/>
      <point x="336" y="-174" type="curve"/>
      <point x="176" y="-164" type="line" smooth="yes"/>
      <point x="164" y="-163"/>
      <point x="153" y="-152"/>
      <point x="153" y="-128" type="curve" smooth="yes"/>
      <point x="153" y="644" type="line" smooth="yes"/>
      <point x="153" y="662"/>
      <point x="165" y="673"/>
      <point x="176" y="674" type="curve" smooth="yes"/>
      <point x="336" y="679" type="line" smooth="yes"/>
      <point x="349" y="679"/>
      <point x="362" y="683"/>
      <point x="362" y="691" type="curve" smooth="yes"/>
      <point x="362" y="699"/>
      <point x="353" y="701"/>
      <point x="344" y="701" type="curve" smooth="yes"/>
      <point x="148" y="702" type="line" smooth="yes"/>
      <point x="116" y="702"/>
      <point x="110" y="702"/>
      <point x="110" y="668" type="curve" smooth="yes"/>
      <point x="110" y="-175" type="line" smooth="yes"/>
      <point x="110" y="-199"/>
      <point x="118" y="-200"/>
      <point x="141" y="-200" type="curve" smooth="yes"/>
    </contour>
  </outline>
</glyph>
<glyph name="a" format="1">
  <advance width="493"/>
  <unicode hex="0061"/>
  <outline>
    <contour>
      <point x="332" y="43" type="curve"/>
      <point x="335" y="43" type="line"/>
      <point x="351" y="5"/>
      <point x="379" y="-15"/>
      <point x="412" y="-15" type="curve" smooth="yes"/>
      <point x="434" y="-15"/>
      <point x="458" y="1"/>
      <point x="482" y="24" type="curve" smooth="yes"/>
      <point x="487" y="30"/>
      <point x="492" y="38"/>
      <point x="492" y="43" type="curve" smooth="yes"/>
      <point x="492" y="48"/>
      <point x="487" y="53"/>
      <point x="479" y="53" type="curve" smooth="yes"/>
      <point x="476" y="53"/>
      <point x="473" y="51"/>
      <point x="467" y="46" type="curve" smooth="yes"/>
      <point x="455" y="36"/>
      <point x="441" y="32"/>
      <point x="419" y="32" type="curve" smooth="yes"/>
      <point x="386" y="32"/>
      <point x="366" y="51"/>
      <point x="367" y="81" type="curve" smooth="yes"/>
      <point x="374" y="307" type="line" smooth="yes"/>
      <point x="376" y="358"/>
      <point x="334" y="395"/>
      <point x="278" y="395" type="curve" smooth="yes"/>
      <point x="231" y="395"/>
      <point x="156" y="365"/>
      <point x="103" y="324" type="curve" smooth="yes"/>
      <point x="74" y="302"/>
      <point x="57" y="276"/>
      <point x="57" y="255" type="curve" smooth="yes"/>
      <point x="57" y="250"/>
      <point x="59" y="246"/>
      <point x="64" y="246" type="curve" smooth="yes"/>
      <point x="77" y="246"/>
      <point x="109" y="271"/>
      <point x="109" y="281" type="curve" smooth="yes"/>
      <point x="109" y="286"/>
      <point x="107" y="294"/>
      <point x="107" y="299" type="curve" smooth="yes"/>
      <point x="107" y="314"/>
      <point x="111" y="327"/>
      <point x="126" y="334" type="curve" smooth="yes"/>
      <point x="148" y="346"/>
      <point x="187" y="352"/>
      <point x="224" y="352" type="curve" smooth="yes"/>
      <point x="293" y="352"/>
      <point x="332" y="323"/>
      <point x="331" y="287" type="curve" smooth="yes"/>
      <point x="328" y="231" type="line" smooth="yes"/>
      <point x="327" y="207"/>
      <point x="326" y="204"/>
      <point x="297" y="195" type="curve" smooth="yes"/>
      <point x="140" y="148" type="line" smooth="yes"/>
      <point x="79" y="129"/>
      <point x="52" y="109"/>
      <point x="52" y="68" type="curve" smooth="yes"/>
      <point x="52" y="32"/>
      <point x="112" y="-15"/>
      <point x="161" y="-15" type="curve" smooth="yes"/>
      <point x="219" y="-15"/>
      <point x="276" y="5"/>
    </contour>
    <contour>
      <point x="99" y="84" type="curve" smooth="yes"/>
      <point x="99" y="108"/>
      <point x="131" y="136"/>
      <point x="275" y="164" type="curve" smooth="yes"/>
      <point x="296" y="168"/>
      <point x="307" y="168"/>
      <point x="313" y="168" type="curve" smooth="yes"/>
      <point x="327" y="168"/>
      <point x="330" y="162"/>
      <point x="329" y="147" type="curve" smooth="yes"/>
      <point x="327" y="94" type="line" smooth="yes"/>
      <point x="326" y="68"/>
      <point x="314" y="59"/>
      <point x="301" y="52" type="curve" smooth="yes"/>
      <point x="274" y="36"/>
      <point x="240" y="27"/>
      <point x="191" y="27" type="curve" smooth="yes"/>
      <point x="137" y="27"/>
      <point x="99" y="47"/>
    </contour>
  </outline>
</glyph>
<glyph name="g" format="1">
  <advance width="533"/>
  <unicode hex="0067"/>
  <outline>
    <contour>
      <point x="516" y="-79" type="curve" smooth="yes"/>
      <point x="515" y="-19"/>
      <point x="440" y="14"/>
      <point x="280" y="21" type="curve" smooth="yes"/>
      <point x="166" y="26"/>
      <point x="88" y="37"/>
      <point x="88" y="70" type="curve" smooth="yes"/>
      <point x="88" y="84"/>
      <point x="133" y="108"/>
      <point x="180" y="121" type="curve"/>
      <point x="145" y="139" type="line"/>
      <point x="133" y="126"/>
      <point x="134" y="127"/>
      <point x="78" y="90" type="curve" smooth="yes"/>
      <point x="59" y="76"/>
      <point x="48" y="65"/>
      <point x="48" y="51" type="curve" smooth="yes"/>
      <point x="48" y="-8"/>
      <point x="95" y="-30"/>
      <point x="257" y="-40" type="curve" smooth="yes"/>
      <point x="415" y="-48"/>
      <point x="477" y="-56"/>
      <point x="479" y="-113" type="curve" smooth="yes"/>
      <point x="481" y="-156"/>
      <point x="449" y="-197"/>
      <point x="404" y="-222" type="curve" smooth="yes"/>
      <point x="370" y="-245"/>
      <point x="316" y="-256"/>
      <point x="248" y="-256" type="curve" smooth="yes"/>
      <point x="145" y="-256"/>
      <point x="59" y="-214"/>
      <point x="59" y="-160" type="curve" smooth="yes"/>
      <point x="59" y="-106"/>
      <point x="97" y="-69"/>
      <point x="194" y="-27" type="curve"/>
      <point x="157" y="-20" type="line"/>
      <point x="119" y="-48"/>
      <point x="77" y="-77"/>
      <point x="54" y="-93" type="curve" smooth="yes"/>
      <point x="27" y="-113"/>
      <point x="15" y="-137"/>
      <point x="15" y="-171" type="curve" smooth="yes"/>
      <point x="15" y="-245"/>
      <point x="101" y="-290"/>
      <point x="231" y="-290" type="curve" smooth="yes"/>
      <point x="374" y="-290"/>
      <point x="519" y="-189"/>
    </contour>
    <contour>
      <point x="92" y="257" type="curve" smooth="yes"/>
      <point x="92" y="323"/>
      <point x="161" y="373"/>
      <point x="243" y="373" type="curve" smooth="yes"/>
      <point x="339" y="373"/>
      <point x="405" y="333"/>
      <point x="405" y="262" type="curve" smooth="yes"/>
      <point x="405" y="184"/>
      <point x="341" y="128"/>
      <point x="255" y="128" type="curve" smooth="yes"/>
      <point x="163" y="128"/>
      <point x="92" y="179"/>
    </contour>
    <contour>
      <point x="442" y="280" type="curve" smooth="yes"/>
      <point x="442" y="297"/>
      <point x="446" y="317"/>
      <point x="450" y="327" type="curve" smooth="yes"/>
      <point x="452" y="333"/>
      <point x="464" y="337"/>
      <point x="486" y="337" type="curve" smooth="yes"/>
      <point x="520" y="337" type="line"/>
      <point x="522" y="337"/>
      <point x="526" y="338"/>
      <point x="530" y="340" type="curve" smooth="yes"/>
      <point x="537" y="344"/>
      <point x="542" y="352"/>
      <point x="542" y="357" type="curve" smooth="yes"/>
      <point x="542" y="364"/>
      <point x="534" y="369"/>
      <point x="526" y="369" type="curve" smooth="yes"/>
      <point x="513" y="369"/>
      <point x="478" y="366"/>
      <point x="458" y="366" type="curve" smooth="yes"/>
      <point x="434" y="366"/>
      <point x="415" y="367"/>
      <point x="376" y="376" type="curve" smooth="yes"/>
      <point x="342" y="383"/>
      <point x="310" y="396"/>
      <point x="262" y="396" type="curve" smooth="yes"/>
      <point x="150" y="396"/>
      <point x="48" y="334"/>
      <point x="48" y="246" type="curve" smooth="yes"/>
      <point x="48" y="168"/>
      <point x="147" y="102"/>
      <point x="247" y="102" type="curve" smooth="yes"/>
      <point x="353" y="102"/>
      <point x="442" y="183"/>
    </contour>
  </outline>
</glyph>
<glyph name="s" format="1">
  <advance width="443"/>
  <unicode hex="0073"/>
  <outline>
    <contour>
      <point x="402" y="98" type="curve" smooth="yes"/>
      <point x="402" y="139"/>
      <point x="359" y="170"/>
      <point x="244" y="212" type="curve" smooth="yes"/>
      <point x="132" y="257"/>
      <point x="105" y="275"/>
      <point x="105" y="311" type="curve" smooth="yes"/>
      <point x="105" y="353"/>
      <point x="153" y="372"/>
      <point x="237" y="372" type="curve" smooth="yes"/>
      <point x="311" y="372"/>
      <point x="337" y="354"/>
      <point x="358" y="299" type="curve" smooth="yes"/>
      <point x="360" y="294"/>
      <point x="370" y="290"/>
      <point x="378" y="290" type="curve" smooth="yes"/>
      <point x="384" y="290"/>
      <point x="389" y="292"/>
      <point x="389" y="297" type="curve" smooth="yes"/>
      <point x="389" y="327"/>
      <point x="379" y="362"/>
      <point x="365" y="376" type="curve"/>
      <point x="348" y="388"/>
      <point x="307" y="394"/>
      <point x="247" y="394" type="curve" smooth="yes"/>
      <point x="129" y="394"/>
      <point x="62" y="349"/>
      <point x="62" y="295" type="curve" smooth="yes"/>
      <point x="62" y="253"/>
      <point x="98" y="222"/>
      <point x="219" y="174" type="curve" smooth="yes"/>
      <point x="323" y="133"/>
      <point x="355" y="117"/>
      <point x="355" y="80" type="curve" smooth="yes"/>
      <point x="355" y="36"/>
      <point x="292" y="7"/>
      <point x="218" y="7" type="curve" smooth="yes"/>
      <point x="131" y="7"/>
      <point x="84" y="26"/>
      <point x="62" y="99" type="curve"/>
      <point x="60" y="107"/>
      <point x="54" y="109"/>
      <point x="49" y="109" type="curve" smooth="yes"/>
      <point x="42" y="109"/>
      <point x="37" y="106"/>
      <point x="37" y="98" type="curve"/>
      <point x="38" y="75"/>
      <point x="42" y="34"/>
      <point x="52" y="20" type="curve"/>
      <point x="86" y="-2"/>
      <point x="138" y="-14"/>
      <point x="193" y="-14" type="curve" smooth="yes"/>
      <point x="312" y="-14"/>
      <point x="402" y="32"/>
    </contour>
  </outline>
</glyph>
<glyph name="x" format="1">
  <advance width="603"/>
  <unicode hex="0078"/>
  <outline>
    <contour>
      <point x="136" y="1" type="curve" smooth="yes"/>
      <point x="159" y="1"/>
      <point x="185" y="-1"/>
      <point x="201" y="-2" type="curve" smooth="yes"/>
      <point x="208" y="-2"/>
      <point x="232" y="-2"/>
      <point x="232" y="5" type="curve" smooth="yes"/>
      <point x="232" y="14"/>
      <point x="215" y="17"/>
      <point x="201" y="20" type="curve"/>
      <point x="182" y="23"/>
      <point x="173" y="28"/>
      <point x="172" y="37" type="curve" smooth="yes"/>
      <point x="172" y="44"/>
      <point x="177" y="52"/>
      <point x="182" y="58" type="curve" smooth="yes"/>
      <point x="300" y="185" type="line" smooth="yes"/>
      <point x="303" y="186"/>
      <point x="307" y="186"/>
      <point x="309" y="185" type="curve" smooth="yes"/>
      <point x="421" y="61" type="line" smooth="yes"/>
      <point x="430" y="53"/>
      <point x="435" y="46"/>
      <point x="435" y="39" type="curve" smooth="yes"/>
      <point x="435" y="32"/>
      <point x="426" y="24"/>
      <point x="399" y="21" type="curve" smooth="yes"/>
      <point x="379" y="17"/>
      <point x="367" y="15"/>
      <point x="367" y="5" type="curve" smooth="yes"/>
      <point x="367" y="2"/>
      <point x="374" y="-2"/>
      <point x="393" y="-2" type="curve" smooth="yes"/>
      <point x="419" y="-2"/>
      <point x="449" y="-1"/>
      <point x="475" y="-1" type="curve" smooth="yes"/>
      <point x="532" y="-1"/>
      <point x="524" y="-4"/>
      <point x="570" y="-4" type="curve" smooth="yes"/>
      <point x="580" y="-4"/>
      <point x="596" y="-3"/>
      <point x="596" y="3" type="curve" smooth="yes"/>
      <point x="596" y="12"/>
      <point x="581" y="14"/>
      <point x="565" y="16" type="curve" smooth="yes"/>
      <point x="539" y="21"/>
      <point x="517" y="32"/>
      <point x="493" y="53" type="curve" smooth="yes"/>
      <point x="345" y="204" type="line" smooth="yes"/>
      <point x="340" y="209"/>
      <point x="342" y="213"/>
      <point x="345" y="217" type="curve" smooth="yes"/>
      <point x="442" y="319" type="line" smooth="yes"/>
      <point x="467" y="348"/>
      <point x="506" y="359"/>
      <point x="538" y="363" type="curve"/>
      <point x="553" y="366"/>
      <point x="569" y="370"/>
      <point x="569" y="378" type="curve" smooth="yes"/>
      <point x="569" y="384"/>
      <point x="553" y="385"/>
      <point x="542" y="385" type="curve" smooth="yes"/>
      <point x="519" y="385"/>
      <point x="514" y="381"/>
      <point x="462" y="381" type="curve" smooth="yes"/>
      <point x="440" y="381"/>
      <point x="414" y="383"/>
      <point x="398" y="383" type="curve" smooth="yes"/>
      <point x="391" y="383"/>
      <point x="367" y="384"/>
      <point x="367" y="376" type="curve" smooth="yes"/>
      <point x="367" y="368"/>
      <point x="384" y="366"/>
      <point x="397" y="363" type="curve"/>
      <point x="418" y="361"/>
      <point x="426" y="356"/>
      <point x="427" y="348" type="curve" smooth="yes"/>
      <point x="427" y="342"/>
      <point x="422" y="334"/>
      <point x="414" y="327" type="curve"/>
      <point x="319" y="228" type="line" smooth="yes"/>
      <point x="314" y="224"/>
      <point x="311" y="223"/>
      <point x="306" y="228" type="curve" smooth="yes"/>
      <point x="217" y="318" type="line"/>
      <point x="199" y="334"/>
      <point x="193" y="344"/>
      <point x="193" y="349" type="curve" smooth="yes"/>
      <point x="193" y="358"/>
      <point x="203" y="362"/>
      <point x="221" y="365" type="curve" smooth="yes"/>
      <point x="232" y="367"/>
      <point x="244" y="370"/>
      <point x="244" y="376" type="curve" smooth="yes"/>
      <point x="244" y="383"/>
      <point x="221" y="383"/>
      <point x="214" y="383" type="curve" smooth="yes"/>
      <point x="189" y="383"/>
      <point x="187" y="381"/>
      <point x="161" y="381" type="curve" smooth="yes"/>
      <point x="108" y="381"/>
      <point x="115" y="384"/>
      <point x="73" y="384" type="curve" smooth="yes"/>
      <point x="67" y="384"/>
      <point x="48" y="385"/>
      <point x="48" y="377" type="curve" smooth="yes"/>
      <point x="48" y="369"/>
      <point x="65" y="366"/>
      <point x="79" y="363" type="curve" smooth="yes"/>
      <point x="106" y="358"/>
      <point x="123" y="345"/>
      <point x="149" y="320" type="curve" smooth="yes"/>
      <point x="269" y="209" type="line" smooth="yes"/>
      <point x="276" y="202"/>
      <point x="278" y="198"/>
      <point x="268" y="190" type="curve"/>
      <point x="148" y="71" type="line" smooth="yes"/>
      <point x="108" y="33"/>
      <point x="81" y="23"/>
      <point x="47" y="17" type="curve" smooth="yes"/>
      <point x="32" y="15"/>
      <point x="14" y="12"/>
      <point x="14" y="3" type="curve" smooth="yes"/>
      <point x="14" y="-3"/>
      <point x="31" y="-4"/>
      <point x="42" y="-4" type="curve" smooth="yes"/>
      <point x="68" y="-4"/>
      <point x="84" y="1"/>
    </contour>
  </outline>
</glyph>
<glyph name="y" format="1">
  <advance width="583"/>
  <unicode hex="0079"/>
  <outline>
    <contour>
      <point x="155" y="-244" type="curve" smooth="yes"/>
      <point x="205" y="-160"/>
      <point x="259" y="-63"/>
      <point x="291" y="-20" type="curve" smooth="yes"/>
      <point x="472" y="300" type="line" smooth="yes"/>
      <point x="493" y="337"/>
      <point x="530" y="359"/>
      <point x="558" y="364" type="curve"/>
      <point x="582" y="369"/>
      <point x="590" y="372"/>
      <point x="590" y="378" type="curve" smooth="yes"/>
      <point x="590" y="384"/>
      <point x="578" y="385"/>
      <point x="563" y="385" type="curve" smooth="yes"/>
      <point x="539" y="385"/>
      <point x="531" y="381"/>
      <point x="485" y="381" type="curve" smooth="yes"/>
      <point x="439" y="381"/>
      <point x="412" y="385"/>
      <point x="394" y="385" type="curve" smooth="yes"/>
      <point x="381" y="385"/>
      <point x="367" y="385"/>
      <point x="367" y="379" type="curve" smooth="yes"/>
      <point x="367" y="372"/>
      <point x="372" y="372"/>
      <point x="397" y="367" type="curve" smooth="yes"/>
      <point x="427" y="362"/>
      <point x="440" y="351"/>
      <point x="440" y="326" type="curve" smooth="yes"/>
      <point x="440" y="316"/>
      <point x="436" y="300"/>
      <point x="429" y="287" type="curve"/>
      <point x="297" y="48" type="line" smooth="yes"/>
      <point x="296" y="47"/>
      <point x="296" y="47"/>
      <point x="295" y="47" type="curve" smooth="yes"/>
      <point x="295" y="47"/>
      <point x="295" y="47"/>
      <point x="294" y="48" type="curve" smooth="yes"/>
      <point x="157" y="298" type="line" smooth="yes"/>
      <point x="151" y="308"/>
      <point x="150" y="317"/>
      <point x="150" y="326" type="curve" smooth="yes"/>
      <point x="150" y="344"/>
      <point x="162" y="361"/>
      <point x="182" y="366" type="curve" smooth="yes"/>
      <point x="199" y="369"/>
      <point x="212" y="371"/>
      <point x="212" y="378" type="curve" smooth="yes"/>
      <point x="212" y="385"/>
      <point x="198" y="385"/>
      <point x="190" y="385" type="curve" smooth="yes"/>
      <point x="148" y="385"/>
      <point x="146" y="381"/>
      <point x="108" y="381" type="curve" smooth="yes"/>
      <point x="69" y="381"/>
      <point x="70" y="385"/>
      <point x="27" y="385" type="curve" smooth="yes"/>
      <point x="19" y="385"/>
      <point x="5" y="384"/>
      <point x="5" y="378" type="curve" smooth="yes"/>
      <point x="5" y="371"/>
      <point x="14" y="368"/>
      <point x="29" y="365" type="curve"/>
      <point x="55" y="359"/>
      <point x="82" y="342"/>
      <point x="99" y="307" type="curve" smooth="yes"/>
      <point x="256" y="32" type="line" smooth="yes"/>
      <point x="262" y="23"/>
      <point x="264" y="13"/>
      <point x="264" y="4" type="curve" smooth="yes"/>
      <point x="264" y="-5"/>
      <point x="261" y="-13"/>
      <point x="257" y="-20" type="curve"/>
      <point x="215" y="-92"/>
      <point x="178" y="-153"/>
      <point x="145" y="-194" type="curve" smooth="yes"/>
      <point x="140" y="-202"/>
      <point x="129" y="-205"/>
      <point x="121" y="-205" type="curve" smooth="yes"/>
      <point x="110" y="-205"/>
      <point x="96" y="-199"/>
      <point x="80" y="-199" type="curve" smooth="yes"/>
      <point x="59" y="-199"/>
      <point x="47" y="-220"/>
      <point x="47" y="-244" type="curve" smooth="yes"/>
      <point x="47" y="-274"/>
      <point x="69" y="-285"/>
      <point x="95" y="-285" type="curve" smooth="yes"/>
      <point x="122" y="-285"/>
      <point x="140" y="-270"/>
    </contour>
  </outline>
</glyph>
<glyph name="asciitilde" format="1">
  <advance width="700"/>
  <unicode hex="007E"/>
  <outline>
    <contour>
      <point x="625" y="348" type="curve" smooth="yes"/>
      <point x="625" y="358"/>
      <point x="608" y="363"/>
      <point x="602" y="363" type="curve" smooth="yes"/>
      <point x="596" y="363"/>
      <point x="538" y="297"/>
      <point x="471" y="297" type="curve" smooth="yes"/>
      <point x="435" y="297"/>
      <point x="400" y="311"/>
      <point x="363" y="329" type="curve" smooth="yes"/>
      <point x="326" y="346"/>
      <point x="286" y="366"/>
      <point x="238" y="366" type="curve" smooth="yes"/>
      <point x="140" y="366"/>
      <point x="70" y="293"/>
      <point x="70" y="269" type="curve" smooth="yes"/>
      <point x="70" y="263"/>
      <point x="83" y="258"/>
      <point x="92" y="258" type="curve" smooth="yes"/>
      <point x="100" y="258"/>
      <point x="149" y="320"/>
      <point x="226" y="320" type="curve" smooth="yes"/>
      <point x="267" y="320"/>
      <point x="305" y="305"/>
      <point x="343" y="289" type="curve" smooth="yes"/>
      <point x="383" y="272"/>
      <point x="424" y="253"/>
      <point x="472" y="253" type="curve" smooth="yes"/>
      <point x="539" y="253"/>
      <point x="625" y="313"/>
    </contour>
  </outline>
</glyph>
